<?xml version="1.0" encoding="UTF-8" standalone="no"?>
<!-- Created with Inkscape (http://www.inkscape.org/) -->

<svg
   version="1.1"
   id="svg1"
   width="429.1723"
   height="78.328659"
   viewBox="0 0 429.1723 78.328659"
   sodipodi:docname="exemple_logo.png"
   inkscape:export-filename="exemple_logo.svg"
   inkscape:export-xdpi="96"
   inkscape:export-ydpi="96"
   xmlns:inkscape="http://www.inkscape.org/namespaces/inkscape"
   xmlns:sodipodi="http://sodipodi.sourceforge.net/DTD/sodipodi-0.dtd"
   xmlns="http://www.w3.org/2000/svg"
   xmlns:svg="http://www.w3.org/2000/svg">
  <defs
     id="defs1" />
  <sodipodi:namedview
     id="namedview1"
     pagecolor="#505050"
     bordercolor="#ffffff"
     borderopacity="1"
     inkscape:showpageshadow="0"
     inkscape:pageopacity="0"
     inkscape:pagecheckerboard="1"
     inkscape:deskcolor="#505050" />
  <g
     inkscape:groupmode="layer"
     inkscape:label="Image"
     id="g1"
     transform="translate(-112.08283,-174.48032)">
    <rect
       style="fill:#000000;fill-opacity:1;stroke-width:1;stroke-dasharray:none"
       id="rect35"
       width="653.64191"
       height="430.52374"
       x="0"
       y="-1.047503" />
    <path
       style="fill:#ab8545;fill-opacity:1;stroke-width:1;stroke-dasharray:none"
       d="m 209.89487,196.65492 0.27776,34.90533 22.49866,-0.18518 -0.27776,-8.6106 -13.93435,-0.18517 -0.13888,-4.44418 10.97156,-0.18517 -0.27776,-8.14766 -10.23087,-0.18518 v -4.67564 l 13.98065,-0.27777 0.0463,-7.8699 z"
       id="path23" />
    <path
       style="fill:#ab8545;fill-opacity:1;stroke-width:1;stroke-dasharray:none"
       d="m 273.10627,196.92617 0.27776,34.90533 22.49866,-0.18518 -0.27776,-8.6106 -13.93435,-0.18517 -0.13888,-4.44418 10.97156,-0.18517 -0.27776,-8.14766 -10.23087,-0.18518 v -4.67564 l 13.98065,-0.27777 0.0463,-7.8699 z"
       id="path23-2" />
    <path
       style="fill:#ab8545;fill-opacity:1;stroke-width:1;stroke-dasharray:none"
       d="m 396.58557,196.77851 0.27776,34.90533 22.49866,-0.18518 -0.27776,-8.6106 -13.93435,-0.18517 -0.13888,-4.44418 10.97156,-0.18517 -0.27776,-8.14766 -10.23087,-0.18518 v -4.67564 l 13.98065,-0.27777 0.0463,-7.8699 z"
       id="path23-0" />
    <path
       style="fill:#ab8545;fill-opacity:1;stroke-width:1;stroke-dasharray:none"
       d="m 238.50335,196.73417 10.14769,16.89098 -9.55847,16.89099 9.62393,0.19641 4.25549,-8.77284 5.49939,8.8383 8.57643,-0.72015 -9.82034,-16.10536 9.88581,-17.48021 -9.88581,-0.13094 -4.45189,8.57643 -4.8447,-8.31455 z"
       id="path24" />
    <path
       style="fill:#ab8545;fill-opacity:1;stroke-width:1;stroke-dasharray:none"
       d="m 302.11159,196.46975 0.0926,35.0905 8.33283,-0.27777 -0.0926,-14.72134 4.44418,11.01786 3.33314,0.0926 4.53676,-10.92527 0.27776,14.35099 h 7.96249 l -0.0926,-34.62756 -8.51801,0.18517 -5.92557,13.70289 -6.3885,-14.16582 z"
       id="path25" />
    <path
       style="fill:#ab8545;fill-opacity:1;stroke-width:1;stroke-dasharray:none"
       d="m 337.57243,196.56234 0.27776,34.53497 h 7.96249 l -0.0926,-9.44388 13.14737,0.18517 4.07383,-4.259 -0.37035,-17.31378 -4.16642,-3.70348 z"
       id="path26" />
    <path
       style="fill:#ab8545;fill-opacity:1;stroke-width:1;stroke-dasharray:none"
       d="m 368.98295,196.6687 0.13094,34.43666 20.81912,-0.26188 0.26187,-8.11814 h -11.91534 l -0.65469,-26.58039 z"
       id="path27" />
    <path
       style="fill:#ab8545;fill-opacity:1;stroke-width:1;stroke-dasharray:none"
       d="m 425.63703,197.08343 0.13094,34.43666 20.81912,-0.26188 0.26187,-8.11814 h -11.91534 l -0.65469,-26.58039 z"
       id="path27-9" />
    <path
       style="fill:#ab8545;fill-opacity:1;stroke-width:1;stroke-dasharray:none"
       d="m 457.38009,196.37716 -4.35159,4.72194 v 24.62816 l 4.90712,5.18488 15.55462,0.37034 4.62936,-4.81452 0.27776,-26.01697 -4.16642,-4.16642 z"
       id="path28" />
    <path
       style="fill:#ab8545;fill-opacity:1;stroke-width:1;stroke-dasharray:none"
       d="m 520.23786,196.24115 -4.35159,4.72194 v 24.62816 l 4.90712,5.18488 15.55462,0.37034 4.62936,-4.81452 0.27776,-26.01697 -4.16642,-4.16642 z"
       id="path28-9" />
    <path
       style="fill:#ab8545;fill-opacity:1;stroke-width:1;stroke-dasharray:none"
       d="m 496.90926,209.82795 0.0655,8.11815 4.58282,-0.13094 -0.26187,5.36846 -7.92174,-0.0655 0.0655,-18.39677 16.36724,-0.13094 -0.0655,-7.98721 h -21.081 l -3.86267,3.86267 0.26188,25.9257 4.25548,4.64829 15.45067,0.13094 4.77923,-4.05908 -0.32734,-17.41473 z"
       id="path29" />
    <path
       style="fill:#ab8545;fill-opacity:1;stroke-width:1;stroke-dasharray:none"
       d="m 135.91781,176.93388 -4.62935,2.03691 -5.37005,3.79607 -4.62936,4.3516 -4.53676,5.92557 -1.94433,4.9997 3.05537,-1.20363 4.25901,-2.8702 6.66627,-5.27746 3.24054,-4.16642 4.16642,-6.4811 z"
       id="path30" />
    <path
       style="fill:#ab8545;fill-opacity:1;stroke-width:1;stroke-dasharray:none"
       d="m 112.08283,206.88185 v 6.02314 l 3.74359,-0.46397 10.13828,-3.74978 5.23117,-3.42572 9.39759,-9.305 3.00908,-4.02754 3.42572,-5.46263 2.22209,-5.64782 1.06475,-5.55522 v -0.78699 h -5.97187 l -0.74069,1.85174 -1.11105,2.77761 -3.05537,5.97187 -2.77761,4.02754 -2.77762,3.19425 -2.40726,2.45356 -2.68502,2.22209 -3.14796,2.8702 -3.00908,1.99062 -3.70349,2.17579 -4.9997,2.12951 z"
       id="path31" />
    <path
       style="fill:#ab8545;fill-opacity:1;stroke-width:1;stroke-dasharray:none"
       d="m 112.58587,219.57022 0.92587,4.02754 c 0,0 2.91649,0.27776 3.10167,0.27776 0.18517,0 6.52738,-0.50923 6.52738,-0.50923 l 6.29592,-1.89803 9.3513,-4.62936 5.87928,-4.90711 6.99032,-7.22179 4.58306,-7.03662 2.68502,-4.95341 1.80545,-5.55522 0.78699,-4.44418 -0.27776,-5.83299 -0.87958,-1.43509 h -1.89803 l -1.52769,0.13888 -0.32405,4.35159 -1.4814,4.86082 -1.71286,4.07383 -2.54614,4.39789 -1.66657,2.68502 -2.8702,3.84236 -2.40726,2.63873 -3.19425,3.33314 -2.73132,2.49985 -3.19426,2.36097 -2.91649,1.89803 -3.70348,2.1758 -5.13858,2.77761 -4.25901,1.06475 -3.74977,0.97217 z"
       id="path32" />
    <path
       style="fill:#ab8545;fill-opacity:1;stroke-width:1;stroke-dasharray:none"
       d="m 169.38803,179.29485 3.93495,2.63873 0.32406,3.5646 -0.0926,7.8699 -1.85174,4.72194 -2.40726,5.09229 -2.26839,3.98124 -2.91649,3.93495 -3.33313,4.3516 -2.9165,3.33313 -4.81452,4.44418 -3.19426,2.63873 -3.5646,2.31468 -4.16642,2.40726 -4.39788,2.54615 -5.83299,1.80544 -3.79607,1.38881 -6.4348,0.27776 -4.86082,-4.53677 1.75915,-0.46293 5.27747,-0.87958 8.33283,-2.17579 6.29592,-2.9165 4.86082,-3.28684 3.56461,-2.96278 5.55522,-4.44418 2.77761,-3.19426 3.70348,-4.44417 2.59244,-3.56461 2.26839,-4.49047 2.26838,-4.53677 1.34251,-3.74977 1.15734,-5.69411 z"
       id="path33" />
    <path
       style="fill:#ab8545;fill-opacity:1;stroke-width:1;stroke-dasharray:none"
       d="m 181.47064,190.4053 1.66657,3.28684 0.18518,5.23117 -0.55553,5.23116 -1.57398,4.49048 -2.73132,5.97186 -3.14796,5.37005 -2.36097,2.68503 -3.79607,4.35159 -2.77761,2.91649 -3.93495,3.42572 -2.45355,1.94433 -4.44418,3.14796 -4.62936,2.73132 -5.13858,2.03692 -4.95341,1.80544 -2.91649,0.55553 -5.50893,0.13888 -3.98124,-1.52769 1.71286,-0.64811 2.73132,-0.64811 4.62935,-1.57398 4.90711,-1.80545 4.86082,-3.00908 4.12013,-2.59243 4.35159,-3.14796 4.39789,-3.74978 4.62935,-4.72194 2.8239,-3.28684 3.6109,-4.58306 2.49985,-3.70348 2.59244,-4.39789 1.85174,-4.62935 2.1758,-5.78669 z"
       id="path34" />
    <path
       style="fill:#ab8545;fill-opacity:1;stroke-width:1;stroke-dasharray:none"
       d="m 186.74811,212.62619 0.37035,8.5643 -1.4814,4.99971 -2.63873,5.83298 -3.61089,6.34221 -3.51831,3.98125 -4.67565,3.24055 -4.259,2.8239 -5.7867,2.59244 -4.53676,1.20363 c 0,0 -2.91649,0.60182 -3.19426,0.60182 -0.27776,0 -5.46263,-0.27776 -5.46263,-0.27776 l 2.91649,-1.85175 4.90711,-2.26838 6.66627,-4.62935 5.23117,-4.39789 4.58306,-4.67564 4.07383,-4.3516 3.79607,-5.04599 2.96279,-4.86082 1.80545,-4.25901 z"
       id="path35" />
  </g>
</svg>
